<svg xmlns="http://www.w3.org/2000/svg" fill="#FFF" width="18" height="9" viewBox="0 0 25 12">
	<path fill-rule="evenodd" d="M24.7521097,5.16877637 L19.7679325,0.189873418 C19.5147679,-0.0632911392 19.1086498,-0.0632911392 18.8554852,0.189873418 C18.6023207,0.443037975 18.6023207,0.849156118 18.8554852,1.10232068 L22.7373418,4.98417722 L0.648734177,4.98417722 C0.290084388,4.98417722 -5.32907052e-14,5.2742616 -5.32907052e-14,5.63291139 C-5.32907052e-14,5.99156118 0.290084388,6.28164557 0.648734177,6.28164557 L22.7373418,6.28164557 L18.8554852,10.1529536 C18.6023207,10.4061181 18.6023207,10.8122363 18.8554852,11.0654008 C18.9820675,11.1919831 19.1455696,11.2552743 19.314346,11.2552743 C19.4831224,11.2552743 19.6466245,11.1919831 19.7732068,11.0654008 L24.757384,6.08122363 C25.0052743,5.83333333 25.0052743,5.42194093 24.7521097,5.16877637 Z" />
</svg>
